Coordinates
version=1
nRows=13
nColumns=36
inDegrees=yes

Units are S.I. units (second, meters, Newtons, ...)
If the header above contains a line with 'inDegrees', this indicates whether rotational values are in degrees (yes) or radians (no).

endheader
time	pelvis_tilt	pelvis_list	pelvis_rotation	pelvis_tx	pelvis_ty	pelvis_tz	hip_flexion_r	hip_adduction_r	hip_rotation_r	knee_angle_r	knee_angle_r_beta	ankle_angle_r	subtalar_angle_r	mtp_angle_r	hip_flexion_l	hip_adduction_l	hip_rotation_l	knee_angle_l	knee_angle_l_beta	ankle_angle_l	subtalar_angle_l	mtp_angle_l	lumbar_extension	lumbar_bending	lumbar_rotation	arm_flex_r	arm_add_r	arm_rot_r	elbow_flex_r	pro_sup_r	arm_flex_l	arm_add_l	arm_rot_l	elbow_flex_l	pro_sup_l
      7.21666670	     20.50424009	     -3.14346875	      8.07870412	      0.55423384	      1.03220189	      0.04585801	     23.11740942	     -5.96531268	     -3.79503766	     19.86025377	      0.34662682	      2.30969209	      8.85223394	     -7.49999987	     -9.61116771	     -1.99909399	     -1.60962874	     26.11050272	      0.45571424	     32.69212490	     10.07617210	     -7.49999987	    -27.41126121	     -5.21552322	     -1.48185591	     32.57637129	     -5.90392917	     50.42859931	    120.39686839	     77.98134951	     39.55874108	    -10.55764745	     65.87850960	    124.90577795	     75.68271965
      7.23333330	     20.35722735	     -2.51720160	      8.11429923	      0.55023967	      1.03349362	      0.04350061	     23.36678918	     -6.61130813	     -3.85315554	     19.99576999	      0.34899202	      2.01469759	      9.08970271	     -7.49999987	     -9.23167606	     -1.22767410	     -1.10432600	     26.29018347	      0.45885026	     32.52071207	      9.78724661	     -7.49999987	    -28.03849205	     -5.70383564	     -1.81881832	     33.07120647	     -5.90376773	     50.90645670	    120.27993652	     78.15236485	     40.55534778	    -10.66584564	     66.38687358	    125.06028284	     75.84096766
      7.25000000	     20.14164538	     -2.10232693	      8.12188384	      0.55559728	      1.02927201	      0.04666630	     23.62477742	     -6.97366538	     -3.82991361	     20.02212297	      0.34945197	      1.88036369	      9.15654211	     -7.49999987	     -8.88263170	     -0.73110213	     -0.75663290	     26.47673030	      0.46210612	     32.60758289	      9.57151603	     -7.49999987	    -28.38865616	     -6.01269743	     -2.11905490	     33.26194610	     -5.74886348	     51.41400003	    120.33557814	     79.47416481	     41.19597749	    -11.01712935	     66.97523697	    125.55520806	     77.12329598
      7.26666670	     19.86159036	     -1.89217984	      8.10918518	      0.55750576	      1.02922441	      0.04697875	     23.86762052	     -7.13768377	     -3.85794102	     20.07609075	      0.35039388	      2.10264716	      9.26734467	     -7.49999987	     -8.57786834	     -0.47264885	     -0.49736275	     26.53836224	      0.46318180	     32.75330611	      9.65939850	     -7.49999987	    -28.43931826	     -6.05417491	     -2.18845602	     33.14932564	     -5.53273342	     51.73455394	    120.49528228	     78.98454294	     41.34935718	    -11.11140690	     67.02518206	    125.96225769	     76.68504903
      7.28333330	     19.84404793	     -1.48097345	      8.04851808	      0.55013456	      1.02893339	      0.04433172	     24.15782832	     -7.46561253	     -3.57803216	     20.44049392	      0.35675392	      1.95214236	      9.14593041	     -7.49999987	     -8.20605488	      0.04862412	     -0.21600758	     26.93753808	      0.47014873	     32.72659033	      9.51271238	     -7.49999987	    -29.18831000	     -6.24433371	     -2.37261036	     33.59699969	     -5.50092794	     52.48286388	    120.42590804	     79.11037575	     42.33523298	    -10.94248575	     67.24780566	    125.89053680	     76.84632577
      7.30000000	     19.71379058	     -1.18735734	      8.02247421	      0.55693586	      1.02711169	      0.04232585	     24.33691891	     -7.73512679	     -3.45649866	     20.57206196	      0.35905022	      2.19920240	      9.18553134	     -7.49999987	     -7.90612740	      0.45898198	     -0.00239597	     27.24811587	      0.47556934	     32.87241503	      9.28095651	     -7.49999987	    -29.61511006	     -6.22694011	     -2.61736797	     33.50001831	     -5.53901885	     53.03424078	    120.54361538	     79.23444659	     42.67938737	    -10.96403670	     67.45762089	    125.69983218	     77.03348461
      7.31666670	     19.66033136	     -0.73245153	      7.89596937	      0.54984281	      1.02687302	      0.03990443	     24.67047652	     -8.18887836	     -3.20686512	     20.91071640	      0.36496085	      2.24892139	      9.26638248	     -7.49999987	     -7.52900265	      1.08951626	      0.13722064	     27.71048090	      0.48363913	     32.85253951	      9.04131476	     -7.49999987	    -30.30498375	     -6.32906188	     -2.93321461	     33.71728929	     -5.50451376	     53.51591962	    120.40205553	     79.38085904	     43.35528954	    -10.79931947	     67.27413692	    125.07333969	     77.23721897
      7.33333330	     19.45714462	     -0.27851640	      7.69242402	      0.55067474	      1.02665483	      0.04090201	     25.09020628	     -8.60376334	     -2.97950606	     21.15209640	      0.36917373	      2.56294285	      9.57342547	     -7.49999987	     -7.08277130	      1.75691884	      0.22121596	     28.04356035	      0.48945246	     32.93737062	      8.82913910	     -7.49999987	    -30.67838522	     -6.48636779	     -3.11359628	     33.98649320	     -5.36821959	     53.68910462	    120.27724025	     78.18756310	     43.59341790	    -10.84131164	     66.89931161	    124.39977727	     76.26777774
      7.35000000	     19.54485970	      0.03558386	      7.55946987	      0.54949433	      1.02507675	      0.04106194	     25.13446686	     -8.81565565	     -2.83228179	     21.11373741	      0.36850424	      2.45900652	      9.67766587	     -7.49999987	     -6.96300008	      2.20558332	      0.37555310	     28.34072965	      0.49463904	     33.02922549	      8.62911592	     -7.49999987	    -31.56984034	     -6.47974376	     -2.93955707	     34.47458801	     -5.45864613	     53.76955881	    120.29685764	     82.16169482	     44.50569832	    -10.68890019	     67.02697118	    123.61477505	     82.53681055
      7.36666670	     19.53013094	      0.64384326	      7.42514636	      0.54455332	      1.02697974	      0.03918237	     25.36529021	     -9.32111323	     -2.61209778	     21.11040190	      0.36844602	      2.19784438	      9.92656413	     -7.49999987	     -6.72247569	      2.94394681	      0.43035958	     28.59239625	      0.49903146	     32.85668208	      8.50603384	     -7.49999987	    -32.38114636	     -6.79494589	     -3.07334480	     35.04143827	     -5.42944698	     54.04370214	    120.27499262	     82.21147396	     44.96039325	    -10.54838755	     67.22390960	    123.11570071	     82.60332960
      7.38333330	     19.45694176	      1.18260919	      7.36822042	      0.53880999	      1.02657642	      0.04190031	     25.56646972	     -9.75940643	     -2.50167478	     20.85304036	      0.36395421	      1.79554971	     10.17682455	     -7.49999987	     -6.26399322	      3.52305576	      0.30361399	     29.05291607	      0.50706904	     32.77610056	      8.48995692	     -7.49999987	    -33.38778748	     -7.02074252	     -2.96952769	     35.55229082	     -5.32401919	     53.94912866	    120.17352635	     82.21673781	     45.20707749	    -10.63035581	     67.36297945	    122.93916562	     82.62511640
      7.40000000	     19.42901476	      1.94868636	      7.23096901	      0.53936489	      1.02128328	      0.04338259	     25.91771629	    -10.37713362	     -2.23266366	     21.03428529	      0.36711753	      1.73321372	     10.56131656	     -7.49999987	     -5.80358688	      4.36543076	      0.38850290	     29.64482758	      0.51739985	     32.59677380	      7.94602875	     -7.49999987	    -34.51786516	     -7.90168892	     -3.29696018	     36.78097075	     -5.04319449	     53.87182931	    120.80719884	     81.95682563	     47.04729467	    -10.48393573	     68.56871507	    122.70010072	     82.27185824
      7.41666670	     19.13524705	      2.53247437	      7.15071033	      0.53914350	      1.02086809	      0.04338413	     26.46707918	    -10.88069381	     -2.06317350	     21.29012170	      0.37158272	      1.65699987	     10.93058748	     -7.49999987	     -5.05199192	      5.01669941	      0.32238803	     30.31881595	      0.52916316	     32.87850138	      7.88920458	     -7.49999987	    -35.09685684	     -8.42778804	     -3.80655275	     37.16986449	     -4.67683070	     53.66443172	    121.15822820	     81.58956247	     47.65018252	    -10.71886659	     68.63122272	    122.79008013	     81.87633121
